# xmcd CD database file
#
# Track frame offsets:
#	150
#	15442
#	36544
#	56996
#	73996
#	89295
#	107704
#	127090
#	141531
#
# Disc length: 2099 seconds
#
# Revision: 1
# Processed by: cddbd v1.5.1PL0 Copyright (c) Steve Scherf et al.
# Submitted via: CDex 1.51
#
DISCID=8d083109
DTITLE=Mary Kadderly - Lucky Me
DYEAR=2003
DGENRE=Jazz
TTITLE0=Scene of the Crime
TTITLE1=Love Reconnaissance
TTITLE2=Ode to Billy Joe
TTITLE3=Lucky Me
TTITLE4=Tonight I'm Your Bride
TTITLE5=You Said Spooky
TTITLE6=You Wear My Love Like a Crown
TTITLE7=When That I Was
TTITLE8=O Mistress Mine
EXTD=YEAR: 2003
EXTT0=
EXTT1=
EXTT2=
EXTT3=
EXTT4=
EXTT5=
EXTT6=
EXTT7=
EXTT8=
PLAYORDER=
